<svg width="131" height="30" viewBox="0 0 131 30" fill="none" xmlns="http://www.w3.org/2000/svg">
<path d="M0.786011 10.9418C0.786011 8.86909 1.53926 7.25454 3.04576 6.09818C3.76626 5.53091 4.65051 5.11636 5.69851 4.85454C6.76834 4.57091 7.77268 4.41818 8.71151 4.39636C9.65034 4.37454 10.6328 4.42909 11.659 4.56C12.707 4.66909 13.4603 4.77818 13.9188 4.88727C14.3991 4.97454 14.8139 5.06182 15.1633 5.14909L14.279 8.61818C13.6895 8.46545 13.0454 8.33454 12.3468 8.22545C11.6699 8.11636 10.8948 8.05091 10.0215 8.02909C9.14818 8.00727 8.37309 8.07273 7.69626 8.22545C7.01943 8.37818 6.44084 8.68364 5.96051 9.14182C5.50201 9.6 5.27276 10.2 5.27276 10.9418C5.27276 11.5527 5.43651 12.0982 5.76401 12.5782C6.11334 13.0364 6.57184 13.3964 7.13951 13.6582C7.70718 13.92 8.29668 14.1164 8.90801 14.2473C9.51934 14.3782 10.1634 14.4545 10.8403 14.4764C10.8839 14.4764 10.9494 14.4764 11.0368 14.4764C11.1241 14.4764 11.1896 14.4873 11.2333 14.5091C11.5389 14.5091 11.8009 14.5091 12.0193 14.5091L12.1503 18.0436C11.9756 18.0436 11.79 18.0436 11.5935 18.0436C11.4625 18.0436 11.2878 18.0436 11.0695 18.0436C11.0258 18.0436 11.004 18.0436 11.004 18.0436C11.004 18.0436 10.9931 18.0436 10.9713 18.0436C10.9713 18.0436 10.9603 18.0436 10.9385 18.0436C9.82501 18 8.89709 18.0436 8.15476 18.1745C7.41243 18.3055 6.92118 18.4473 6.68101 18.6C6.46268 18.7309 6.22251 18.9164 5.96051 19.1564C5.91684 19.2 5.88409 19.2327 5.86226 19.2545C5.46926 19.6473 5.27276 20.1818 5.27276 20.8582V27.2727H0.786011V20.8582C0.786011 19.1564 1.35368 17.76 2.48901 16.6691C2.83834 16.3636 3.26409 16.0691 3.76626 15.7855C3.32959 15.48 2.94751 15.1745 2.62001 14.8691C1.39734 13.7127 0.786011 12.4036 0.786011 10.9418ZM17.1436 27.1745C17.0781 26.3455 17.0017 25.2545 16.9144 23.9018C16.8489 22.5491 16.7615 20.5091 16.6524 17.7818C16.5432 15.0327 16.4995 12.4364 16.5214 9.99273C16.5432 7.52727 16.6633 5.68364 16.8816 4.46182H21.7614C21.5212 5.92364 21.4011 8.61818 21.4011 12.5455C21.423 16.4509 21.4775 19.7345 21.5649 22.3964C21.674 25.0364 21.7395 26.6618 21.7614 27.2727L17.1436 27.1745ZM23.3656 27.2727C23.3656 25.1564 23.835 23.0291 24.7739 20.8909C25.7127 18.7527 26.9135 17.0836 28.3762 15.8836C26.9135 14.6836 25.7127 13.0145 24.7739 10.8764C23.835 8.71636 23.3656 6.57818 23.3656 4.46182H28.0815C28.0815 6.01091 28.278 7.51636 28.671 8.97818C29.064 10.4182 29.588 11.5964 30.243 12.5127C30.9198 13.4291 31.6294 13.8873 32.3717 13.8873C33.1141 13.8873 33.8455 13.44 34.566 12.5455C35.3083 11.6291 35.9087 10.44 36.3672 8.97818C36.8257 7.49454 37.055 5.98909 37.055 4.46182H41.4107C41.4107 6.57818 40.9413 8.71636 40.0025 10.8764C39.0637 13.0145 37.8628 14.6836 36.4 15.8836C37.8628 17.0836 39.0637 18.7527 40.0025 20.8909C40.9413 23.0291 41.4107 25.1564 41.4107 27.2727H37.055C37.055 25.7455 36.8257 24.2509 36.3672 22.7891C35.9087 21.3273 35.3083 20.1382 34.566 19.2218C33.8455 18.3055 33.1141 17.8473 32.3717 17.8473C31.6294 17.8473 30.9198 18.3055 30.243 19.2218C29.588 20.1382 29.064 21.3273 28.671 22.7891C28.278 24.2291 28.0815 25.7236 28.0815 27.2727H23.3656ZM74.8354 27.3055C73.6127 22.3527 71.7351 19.5709 69.2024 18.96C68.6129 18.96 68.0234 18.9164 67.4339 18.8291C67.4339 19.1782 67.4448 19.9091 67.4666 21.0218C67.5103 22.1345 67.5321 23.2364 67.5321 24.3273C67.5321 25.3964 67.4994 26.3782 67.4339 27.2727L62.8489 27.3055C62.9362 26.1055 63.0017 23.4109 63.0454 19.2218C62.5214 19.2436 62.0192 19.2545 61.5389 19.2545C61.2769 19.2545 60.9931 19.2545 60.6874 19.2545C60.0979 21.8073 58.9407 23.9127 57.2159 25.5709C55.5129 27.2291 53.6134 28.0582 51.5174 28.0582C49.8144 28.0582 48.1987 27.5127 46.6704 26.4218C45.1639 25.3309 43.9521 23.8473 43.0351 21.9709C42.1181 20.0727 41.6596 18.0327 41.6596 15.8509C41.6596 12.12 42.5985 9.43636 44.4761 7.8L46.9979 9.50182C46.9106 8.14909 47.2271 6.92727 47.9476 5.83636C48.69 4.74545 49.6943 4.08 50.9606 3.84C52.0741 3.64364 53.1003 3.65454 54.0391 3.87273C54.9998 4.09091 55.8076 4.47273 56.4626 5.01818C57.1395 5.54182 57.7508 6.18545 58.2966 6.94909C58.8425 7.71273 59.2791 8.49818 59.6066 9.30545C59.956 10.1127 60.2398 10.9418 60.4581 11.7927C60.6983 12.6436 60.8621 13.3964 60.9494 14.0509C61.0367 14.6836 61.0804 15.2291 61.0804 15.6873C61.7354 15.7091 62.4013 15.7091 63.0781 15.6873C63.1218 14.2691 63.1982 13.0582 63.3074 12.0545C63.4384 11.0291 63.6676 9.99273 63.9951 8.94545C64.3226 7.89818 64.7484 7.04727 65.2724 6.39273C65.8182 5.71636 66.5387 5.16 67.4339 4.72364C68.3509 4.26545 69.4316 3.99273 70.6761 3.90545C73.3835 3.73091 75.534 4.52727 77.1279 6.29454C77.8484 7.05818 78.3505 7.94182 78.6344 8.94545C78.9182 9.92727 78.9728 10.9527 78.7981 12.0218C78.4706 14.16 77.3571 15.84 75.4576 17.0618C75.0646 17.3018 74.6498 17.5309 74.2131 17.7491C75.414 18.6436 76.3419 19.8218 76.9969 21.2836C77.6737 22.7236 78.3069 24.7309 78.8964 27.3055H74.8354ZM52.0414 7.21091C51.3646 7.45091 50.917 7.85454 50.6986 8.42182C50.3711 10.4291 50.7641 11.9891 51.8776 13.1018C52.9475 14.1927 54.6723 14.9455 57.0521 15.36C57.0521 14.2691 56.9321 13.2 56.6919 12.1527C56.2989 10.32 55.6766 8.95636 54.8251 8.06182C53.9955 7.16727 53.0676 6.88364 52.0414 7.21091ZM51.5174 24.4909C52.7619 24.5564 53.8317 24.0655 54.7269 23.0182C55.6439 21.9709 56.2989 20.5964 56.6919 18.8945C53.4169 18.3491 50.9716 17.2582 49.3559 15.6218C47.9586 14.2036 47.1944 12.4691 47.0634 10.4182C46.4084 11.5745 46.0809 13.4182 46.0809 15.9491C46.0809 18.3055 46.594 20.3127 47.6201 21.9709C48.6463 23.6073 49.9454 24.4473 51.5174 24.4909ZM70.9054 7.44C70.2286 7.50545 69.6609 7.74545 69.2024 8.16C68.7439 8.55273 68.3836 9.10909 68.1216 9.82909C67.8815 10.5273 67.7068 11.3127 67.5976 12.1855C67.5103 13.0364 67.4666 14.0291 67.4666 15.1636C68.2526 15.4473 69.0496 15.5891 69.8574 15.5891C70.6652 15.5891 71.4076 15.4473 72.0844 15.1636C72.7612 14.88 73.318 14.4109 73.7546 13.7564C74.1913 13.1018 74.4315 12.3164 74.4751 11.4C74.497 10.5491 74.3987 9.84 74.1804 9.27273C73.9621 8.68364 73.6564 8.26909 73.2634 8.02909C72.8922 7.76727 72.5101 7.60364 72.1171 7.53818C71.746 7.45091 71.3421 7.41818 70.9054 7.44ZM84.6789 21.0545C84.3078 23.3018 84.0894 25.3964 84.0239 27.3382L80.4542 27.2073C80.4979 26.2473 80.5743 25.1782 80.6834 24C80.7926 22.8218 80.9782 21.4691 81.2402 19.9418C81.5022 18.4145 81.8079 16.9309 82.1572 15.4909C82.5284 14.0291 82.9869 12.5891 83.5327 11.1709C84.1004 9.75273 84.7226 8.50909 85.3994 7.44C86.0763 6.37091 86.8841 5.50909 87.8229 4.85454C88.7836 4.2 89.7989 3.87273 90.8687 3.87273C91.5892 3.87273 92.2551 4.05818 92.8664 4.42909C93.4996 4.77818 94.0345 5.28 94.4712 5.93454C94.9297 6.58909 95.3336 7.29818 95.6829 8.06182C96.0323 8.80364 96.327 9.67636 96.5672 10.68C96.8292 11.6836 97.0366 12.6109 97.1894 13.4618C97.3641 14.2909 97.5279 15.2073 97.6807 16.2109C98.2047 19.92 98.4885 23.5964 98.5322 27.24L94.1109 27.3055C94.0891 25.6691 93.9581 23.5855 93.7179 21.0545H84.6789ZM90.836 8.09454C90.0063 7.48364 89.0893 8.11636 88.0849 9.99273C87.0806 11.8473 86.1964 14.3455 85.4322 17.4873H93.2922C93.2485 17.2036 93.2049 16.9418 93.1612 16.7018C92.7027 13.8655 92.3097 11.8145 91.9822 10.5491C91.6765 9.28364 91.2944 8.46545 90.836 8.09454Z" fill="#2A5CAF"/>
<mask id="mask0_1382_2632" style="mask-type:luminance" maskUnits="userSpaceOnUse" x="105" y="3" width="26" height="27">
<path d="M131 3.62825H105.239V29.3717H131V3.62825Z" fill="white"/>
</mask>
<g mask="url(#mask0_1382_2632)">
<path fill-rule="evenodd" clip-rule="evenodd" d="M123.299 4.90808C123.636 3.37083 125.829 3.36164 126.179 4.89704L126.196 4.97059C126.205 5.01963 126.216 5.06681 126.229 5.11219C126.427 5.95246 126.867 6.71618 127.496 7.30874C128.124 7.90132 128.912 8.29669 129.763 8.44595C131.368 8.72547 131.368 11.0277 129.763 11.3072C128.908 11.4569 128.115 11.8556 127.485 12.4531C126.855 13.0507 126.415 13.8207 126.221 14.6667L126.179 14.8543C125.829 16.3897 123.636 16.3805 123.299 14.8414L123.264 14.6814C123.079 13.8316 122.644 13.0564 122.015 12.4548C121.386 11.8531 120.593 11.4523 119.735 11.3035C118.134 11.0258 118.134 8.7273 119.735 8.44781C120.589 8.29961 121.381 7.90121 122.008 7.30312C122.636 6.70503 123.072 5.93419 123.261 5.08827L123.286 4.96876L123.299 4.90808ZM119.393 13.271C118.101 13.0467 117.247 12.2707 116.831 11.3164H114.038C113.44 11.2908 112.85 11.4601 112.357 11.7987C111.864 12.1373 111.494 12.627 111.304 13.1938V13.1975L110.093 16.831H107.999C107.267 16.831 106.565 17.1216 106.047 17.6389C105.529 18.1561 105.239 18.8577 105.239 19.5892V23.2669C105.239 23.8438 105.42 24.4063 105.757 24.875C106.093 25.3438 106.568 25.6952 107.115 25.8798C107.267 24.7644 107.823 23.7433 108.677 23.0097C109.532 22.2761 110.625 21.881 111.752 21.8991C112.878 21.9172 113.958 22.3474 114.789 23.108C115.619 23.8687 116.142 24.9072 116.257 26.0269H119.978C120.09 24.9047 120.611 23.8628 121.442 23.0993C122.273 22.3359 123.355 21.9042 124.484 21.8863C125.612 21.8683 126.708 22.2654 127.563 23.0021C128.417 23.7387 128.971 24.7635 129.119 25.8817C129.667 25.6976 130.143 25.3465 130.481 24.8777C130.818 24.4089 131 23.8461 131 23.2687V19.5911C131 18.8595 130.709 18.158 130.192 17.6407C129.674 17.1234 128.972 16.8328 128.24 16.8328H127.369C125.666 18.8004 122.004 18.2726 121.345 15.268L121.31 15.1062C121.21 14.6442 120.974 14.2226 120.632 13.8957C120.29 13.5687 119.859 13.3512 119.393 13.271ZM111.679 29.2503C110.946 29.2503 110.244 28.9595 109.726 28.4419C109.208 27.9243 108.917 27.2223 108.917 26.4903C108.917 25.7583 109.208 25.0562 109.726 24.5386C110.244 24.021 110.946 23.7302 111.679 23.7302C112.412 23.7302 113.114 24.021 113.632 24.5386C114.15 25.0562 114.441 25.7583 114.441 26.4903C114.441 27.2223 114.15 27.9243 113.632 28.4419C113.114 28.9595 112.412 29.2503 111.679 29.2503ZM124.56 29.2503C123.827 29.2503 123.125 28.9595 122.607 28.4419C122.089 27.9243 121.798 27.2223 121.798 26.4903C121.798 25.7583 122.089 25.0562 122.607 24.5386C123.125 24.021 123.827 23.7302 124.56 23.7302C125.292 23.7302 125.995 24.021 126.513 24.5386C127.031 25.0562 127.322 25.7583 127.322 26.4903C127.322 27.2223 127.031 27.9243 126.513 28.4419C125.995 28.9595 125.292 29.2503 124.56 29.2503Z" fill="#2A5CAF"/>
</g>
</svg>
